<svg width="481" height="152" viewBox="0 0 481 152" fill="none" xmlns="http://www.w3.org/2000/svg">
<path d="M128.088 26.352C122.472 17.928 114.696 11.448 104.76 6.912C94.6079 2.376 82.7279 0 69.1199 0H0V33.696H66.528C75.168 33.696 81.864 35.64 86.4 39.528C90.72 43.416 93.0959 49.032 93.0959 55.944C93.0959 63.072 90.72 68.472 86.4 72.36C81.864 76.248 75.168 77.976 66.528 77.976H0V151.2H42.7679V111.672H69.1199C82.7279 111.672 94.6079 109.512 104.76 104.976C114.696 100.44 122.472 93.96 128.088 85.536C133.488 77.328 136.296 67.392 136.296 55.944C136.296 44.712 133.488 34.776 128.088 26.352Z" fill="black"/>
<path d="M217.786 15.984L206.986 0H158.818L192.298 47.52L217.786 15.984ZM281.075 101.736L256.019 134.136L267.466 151.2H316.715L281.075 101.736ZM313.258 0H267.035L156.443 151.2H205.259L313.258 0Z" fill="black"/>
<path d="M472.057 26.352C466.441 17.928 458.665 11.448 448.729 6.912C438.577 2.376 426.697 0 413.089 0H343.969V33.696H410.497C419.137 33.696 425.833 35.64 430.369 39.528C434.689 43.416 437.065 49.032 437.065 55.944C437.065 63.072 434.689 68.472 430.369 72.36C425.833 76.248 419.137 77.976 410.497 77.976H343.969V151.2H386.737V111.672H413.089C426.697 111.672 438.577 109.512 448.729 104.976C458.665 100.44 466.441 93.96 472.057 85.536C477.457 77.328 480.265 67.392 480.265 55.944C480.265 44.712 477.457 34.776 472.057 26.352Z" fill="black"/>
</svg>
