<svg width="256" height="256" viewBox="0 0 256 256" fill="none" xmlns="http://www.w3.org/2000/svg">
<circle cx="128" cy="128" r="128" fill="#121212"/>
<path fill-rule="evenodd" clip-rule="evenodd" d="M69.9802 71.4216C75.5295 78.3247 106.485 128.462 105.845 129.508C104.926 131.008 66.732 173.673 59.6 181.167V181.167C57.8686 182.986 59.1609 185.993 61.6724 185.989L77.6909 185.964L81.4475 185.958C93.4286 185.939 104.766 180.531 112.319 171.232V171.232C118.885 163.148 124.587 156.511 124.991 156.483C125.394 156.454 129.487 163.07 134.086 171.183V171.183C139.255 180.301 148.922 185.943 159.404 185.959L164.97 185.967C182.697 185.993 187.307 185.697 186.626 184.578C186.151 183.797 177.934 170.979 168.368 156.096C158.802 141.213 150.975 128.503 150.975 127.851C150.975 127.198 162.231 114.193 175.988 98.9488C189.744 83.7051 201 70.9553 201 70.6164C201 70.2775 191.13 70 179.067 70H176.299C164.163 70 152.661 75.4222 144.938 84.7843V84.7843C138.23 92.9157 132.368 99.5607 131.911 99.5516C131.453 99.5425 127.26 92.8895 122.592 84.7673V84.7673C117.341 75.632 107.609 70 97.072 70H91.4704C73.5126 70 69.0741 70.2934 69.9802 71.4216Z" fill="white"/>
</svg>
